<svg xmlns="http://www.w3.org/2000/svg" width="1600" height="550" viewBox="0 0 1600 550">
<defs>
<style><![CDATA[.title { font: 700 32px/1.2 "Inter", system-ui; }.subtitle { font: 500 18px/1.3 "Inter", system-ui; fill: #334155; }.axis { stroke: #94a3b8; stroke-width: 1.2; }.tick { stroke: #94a3b8; stroke-width: 1.0; }.label { font: 500 16px/1.25 "Inter", system-ui; fill: #0f172a; }.event { font: 500 14px/1.2 "Inter", system-ui; fill: #0b3d5c; }.marker { stroke: #0b7285; stroke-width: 2.0; }.credit { font: 400 14px/1.2 "Inter", system-ui; fill: #475569; }]]></style>
</defs>
<text x="800.0" y="60.0" text-anchor="middle" class="title">Fig. 2 — Deep-Time Timeline (Indian anchors)</text>
<text x="800.0" y="86.0" text-anchor="middle" class="subtitle">540 Ma → 0 Ma (left to right), key horizons and fossil records</text>
<line x1="100" y1="450" x2="1500" y2="450" class="axis"/>
<line x1="1500.0" y1="450" x2="1500.0" y2="460" class="tick"/>
<text x="1500.0" y="480" text-anchor="middle" class="label">0 Ma</text>
<line x1="1370.3703703703704" y1="450" x2="1370.3703703703704" y2="460" class="tick"/>
<text x="1370.3703703703704" y="480" text-anchor="middle" class="label">50 Ma</text>
<line x1="1240.7407407407406" y1="450" x2="1240.7407407407406" y2="460" class="tick"/>
<text x="1240.7407407407406" y="480" text-anchor="middle" class="label">100 Ma</text>
<line x1="1111.111111111111" y1="450" x2="1111.111111111111" y2="460" class="tick"/>
<text x="1111.111111111111" y="480" text-anchor="middle" class="label">150 Ma</text>
<line x1="981.4814814814815" y1="450" x2="981.4814814814815" y2="460" class="tick"/>
<text x="981.4814814814815" y="480" text-anchor="middle" class="label">200 Ma</text>
<line x1="851.851851851852" y1="450" x2="851.851851851852" y2="460" class="tick"/>
<text x="851.851851851852" y="480" text-anchor="middle" class="label">250 Ma</text>
<line x1="722.2222222222222" y1="450" x2="722.2222222222222" y2="460" class="tick"/>
<text x="722.2222222222222" y="480" text-anchor="middle" class="label">300 Ma</text>
<line x1="592.5925925925926" y1="450" x2="592.5925925925926" y2="460" class="tick"/>
<text x="592.5925925925926" y="480" text-anchor="middle" class="label">350 Ma</text>
<line x1="462.96296296296293" y1="450" x2="462.96296296296293" y2="460" class="tick"/>
<text x="462.96296296296293" y="480" text-anchor="middle" class="label">400 Ma</text>
<line x1="333.3333333333333" y1="450" x2="333.3333333333333" y2="460" class="tick"/>
<text x="333.3333333333333" y="480" text-anchor="middle" class="label">450 Ma</text>
<line x1="203.7037037037037" y1="450" x2="203.7037037037037" y2="460" class="tick"/>
<text x="203.7037037037037" y="480" text-anchor="middle" class="label">500 Ma</text>
<rect x="846.6666666666666" y="140" width="-746.6666666666666" height="40" fill="#eef2ff" stroke="#c7d2fe" stroke-width="1.25" rx="6"/><text x="473.3333333333333" y="156.0" text-anchor="middle" class="label" style="font-weight:600">Paleozoic</text><text x="473.3333333333333" y="178.0" text-anchor="middle" class="label" style="font-size:14px; fill:#334155">Glossopteris coal floras (Permian)</text>
<rect x="978.8888888888889" y="190" width="-132.22222222222229" height="40" fill="#eef2ff" stroke="#c7d2fe" stroke-width="1.25" rx="6"/><text x="912.7777777777778" y="206.0" text-anchor="middle" class="label" style="font-weight:600">Early–Mid Triassic</text><text x="912.7777777777778" y="228.0" text-anchor="middle" class="label" style="font-size:14px; fill:#334155">Recovery; early archosaurs; Tiki mammals</text>
<rect x="978.8888888888889" y="240" width="-75.18518518518522" height="40" fill="#eef2ff" stroke="#c7d2fe" stroke-width="1.25" rx="6"/><text x="941.2962962962963" y="256.0" text-anchor="middle" class="label" style="font-weight:600">Late Triassic</text><text x="941.2962962962963" y="278.0" text-anchor="middle" class="label" style="font-size:14px; fill:#334155">Pranhita–Godāvari dinos (Maleri)</text>
<rect x="1124.0740740740741" y="290" width="-145.18518518518522" height="40" fill="#eef2ff" stroke="#c7d2fe" stroke-width="1.25" rx="6"/><text x="1051.4814814814815" y="306.0" text-anchor="middle" class="label" style="font-weight:600">Early Jurassic</text><text x="1051.4814814814815" y="328.0" text-anchor="middle" class="label" style="font-size:14px; fill:#334155">Kota Fm: Barapasaurus, Kotasaurus</text>
<rect x="1328.888888888889" y="340" width="-204.81481481481478" height="40" fill="#eef2ff" stroke="#c7d2fe" stroke-width="1.25" rx="6"/><text x="1226.4814814814815" y="356.0" text-anchor="middle" class="label" style="font-weight:600">Cretaceous</text><text x="1226.4814814814815" y="378.0" text-anchor="middle" class="label" style="font-size:14px; fill:#334155">Lameta Fm; Deccan Traps</text>
<rect x="1500.0" y="390" width="-59.62962962962979" height="40" fill="#eef2ff" stroke="#c7d2fe" stroke-width="1.25" rx="6"/><text x="1470.1851851851852" y="406.0" text-anchor="middle" class="label" style="font-weight:600">Neogene–Quaternary</text><text x="1470.1851851851852" y="428.0" text-anchor="middle" class="label" style="font-size:14px; fill:#334155">Himalaya; Siwalik fossil library</text>
<line x1="846.6666666666666" y1="135" x2="846.6666666666666" y2="450" class="marker"/><text x="852.6666666666666" y="127" class="event">P–Tr mass extinction</text>
<line x1="1328.888888888889" y1="335" x2="1328.888888888889" y2="450" class="marker"/><text x="1334.888888888889" y="327" class="event">K–Pg boundary</text>
<line x1="1499.2222222222224" y1="115" x2="1499.6111111111113" y2="115" class="marker"/>
<text x="1499.416666666667" y="107" text-anchor="middle" class="event">Narmadā hominin (~300–150 ka)</text>
<line x1="1499.0018518518518" y1="133" x2="1499.554074074074" y2="133" class="marker"/>
<text x="1499.2779629629629" y="125" text-anchor="middle" class="event">Attirampakkam Acheulean→MP (385–172 ka)</text>
<text x="1500" y="534" text-anchor="end" class="credit">Stone Purāṇa — deep-time timeline (SVG)</text>
</svg>